<svg xmlns="http://www.w3.org/2000/svg" shape-rendering="geometricPrecision" text-rendering="geometricPrecision" image-rendering="optimizeQuality" fill-rule="evenodd" clip-rule="evenodd" viewBox="0 0 464 512.16"><path fill="#ED4949" fill-rule="nonzero" d="M196.14 256.14c-8.38-1.75-16.49-3.04-24.34-3.99-17.91-2.18-34.15-2.67-48.89-3.09C58.33 247.21 22.86 224.1 8.18 196.4c-12.08-22.8-10.07-48.54 1.41-68.67 11.53-20.22 32.65-34.84 58.67-35.24 31.43-.48 69.85 20.14 105.74 78.11 7.48 12.09 15.82 25.2 26.1 38.56 4.19 5.46 8.72 10.97 13.65 16.47-2.32-7.08-4.85-13.81-7.49-20.21-6.4-15.46-13.64-29.33-20.44-41.97-32.03-59.62-30.37-103.22-14.02-130.27C185.2 11.02 208.25-.03 231.3 0c23.03.02 46.1 11.11 59.56 33.19 16.45 26.98 18.29 70.35-13.47 129.35-6.81 12.68-14.14 26.62-20.68 42.35-2.73 6.55-5.33 13.44-7.71 20.7 5.55-6.2 10.59-12.41 15.22-18.55 10.71-14.17 19.23-27.87 26.92-40.35 34.12-55.36 72.54-74.57 104.3-73.36 25.75.97 47.03 15.25 58.65 34.85 11.7 19.77 13.68 44.95.69 67.55-15.91 27.68-54.64 51.14-126.23 53.68-13.53.48-28.22 1.32-44.09 3.59a291.8 291.8 0 00-17.85 3.13c5.57 1.17 11.04 2.13 16.39 2.92 15.48 2.3 29.78 3.21 42.97 3.72 73.33 2.83 112.83 26.35 128.98 53.99 13.15 22.5 11.13 47.51-.66 67.2a71.976 71.976 0 01-58.58 34.78c-31.81 1.44-70.15-17.28-103.69-71.72-7.84-12.73-16.49-26.77-27.19-41.02-4.8-6.4-10.04-12.88-15.84-19.36 2.37 7.24 4.96 14.1 7.67 20.64 6.53 15.7 13.83 29.62 20.64 42.28 31.82 59.14 30.1 102.48 13.74 129.43-13.44 22.14-36.55 33.19-59.64 33.17-23.09-.01-46.22-11.08-59.7-33.16-16.41-26.89-18.23-70.08 13.41-128.86 6.85-12.72 14.22-26.71 20.8-42.5 2.77-6.64 5.41-13.62 7.82-20.99a286.497 286.497 0 00-15.71 19.18c-10.67 14.19-19.31 28.18-27.13 40.88-33.63 54.58-70.67 73.6-101.54 72.49-25.85-.94-47.18-15.9-59.03-36.24-11.85-20.36-14.26-46.19-2.27-68.88 14.18-26.83 48.45-48.93 111.04-50.76l3.22-.09c21.54-.62 46.28-1.33 73.83-7.09z"/><path fill="#FE7678" d="M231.36 256.13c-41.78-14.49-78.04-15.61-108.19-16.48-217.23-6.21-77.81-259 42.83-64.1 15.26 24.65 34.01 53.45 65.36 80.58-7.84-40.84-23.48-71.55-37.24-97.14-107.38-199.86 181.43-198.74 74.98-.91-13.87 25.78-29.8 56.72-37.74 98.05 33.03-28.58 52.07-59.01 67.78-84.5 114.02-184.99 268.28 59.89 29.08 68.38-27.77.98-60.19 3.41-96.86 16.12zm0 0v.01c-33.51 29-52.63 59.91-68.47 85.62-113.44 184.08-256.58-62.82-43.54-69.03 30.89-.9 68.45-1.49 112.01-16.59v-.01zm0 .01c35.54 12.32 67.09 14.98 94.28 16.03 244.46 9.44 86.21 251.44-25.61 69.9-15.89-25.78-35.02-56.81-68.67-85.93 7.92 41.24 23.79 72.14 37.64 97.88 106.83 198.56-181.82 197.89-75.59.58 13.92-25.85 29.97-56.91 37.95-98.46z"/><path fill="#FEF7E5" d="M231.36 196.93c32.45 0 58.75 26.3 58.75 58.75 0 32.44-26.3 58.75-58.75 58.75s-58.75-26.31-58.75-58.75c0-32.45 26.3-58.75 58.75-58.75z"/><path fill="#E5DECE" d="M231.36 232.15c13 0 23.53 10.54 23.53 23.53 0 12.99-10.53 23.53-23.53 23.53-12.99 0-23.52-10.54-23.52-23.53 0-12.99 10.53-23.53 23.52-23.53z"/></svg>